<mxfile host="app.diagrams.net" modified="2024-07-12T17:22:51.598Z" agent="Mozilla/5.0 (Windows NT 10.0; Win64; x64) AppleWebKit/537.36 (KHTML, like Gecko) Chrome/124.0.0.0 YaBrowser/24.6.0.0 Safari/537.36" etag="SICaoJjhtjRLKYLlKUEm" version="24.6.5" type="device">
  <diagram name="Страница — 1" id="xclnuLkPdxtdzU-8S2Ne">
    <mxGraphModel dx="683" dy="377" grid="0" gridSize="10" guides="1" tooltips="1" connect="1" arrows="1" fold="1" page="0" pageScale="1" pageWidth="827" pageHeight="1169" background="none" math="0" shadow="0">
      <root>
        <mxCell id="0" />
        <mxCell id="1" parent="0" />
        <mxCell id="i8UFpYCpFJMkn4LmgD1v-7" style="edgeStyle=orthogonalEdgeStyle;rounded=0;orthogonalLoop=1;jettySize=auto;html=1;entryX=0.5;entryY=0;entryDx=0;entryDy=0;" edge="1" parent="1" source="i8UFpYCpFJMkn4LmgD1v-1" target="i8UFpYCpFJMkn4LmgD1v-3">
          <mxGeometry relative="1" as="geometry" />
        </mxCell>
        <mxCell id="i8UFpYCpFJMkn4LmgD1v-1" value="Начало" style="ellipse;whiteSpace=wrap;html=1;" vertex="1" parent="1">
          <mxGeometry x="320" y="120" width="80" height="40" as="geometry" />
        </mxCell>
        <mxCell id="i8UFpYCpFJMkn4LmgD1v-8" style="edgeStyle=orthogonalEdgeStyle;rounded=0;orthogonalLoop=1;jettySize=auto;html=1;entryX=0.5;entryY=0;entryDx=0;entryDy=0;" edge="1" parent="1" source="i8UFpYCpFJMkn4LmgD1v-3" target="i8UFpYCpFJMkn4LmgD1v-4">
          <mxGeometry relative="1" as="geometry" />
        </mxCell>
        <mxCell id="i8UFpYCpFJMkn4LmgD1v-3" value="k .set 2" style="rounded=0;whiteSpace=wrap;html=1;" vertex="1" parent="1">
          <mxGeometry x="320" y="180" width="80" height="40" as="geometry" />
        </mxCell>
        <mxCell id="i8UFpYCpFJMkn4LmgD1v-9" style="edgeStyle=orthogonalEdgeStyle;rounded=0;orthogonalLoop=1;jettySize=auto;html=1;entryX=0.5;entryY=0;entryDx=0;entryDy=0;" edge="1" parent="1" source="i8UFpYCpFJMkn4LmgD1v-4" target="i8UFpYCpFJMkn4LmgD1v-5">
          <mxGeometry relative="1" as="geometry" />
        </mxCell>
        <mxCell id="i8UFpYCpFJMkn4LmgD1v-4" value="mvk k,a2" style="rounded=0;whiteSpace=wrap;html=1;" vertex="1" parent="1">
          <mxGeometry x="320" y="240" width="80" height="40" as="geometry" />
        </mxCell>
        <mxCell id="i8UFpYCpFJMkn4LmgD1v-10" value="" style="edgeStyle=orthogonalEdgeStyle;rounded=0;orthogonalLoop=1;jettySize=auto;html=1;" edge="1" parent="1" source="i8UFpYCpFJMkn4LmgD1v-5" target="i8UFpYCpFJMkn4LmgD1v-6">
          <mxGeometry relative="1" as="geometry" />
        </mxCell>
        <mxCell id="i8UFpYCpFJMkn4LmgD1v-5" value="mv a2,b2" style="rounded=0;whiteSpace=wrap;html=1;" vertex="1" parent="1">
          <mxGeometry x="320" y="300" width="80" height="40" as="geometry" />
        </mxCell>
        <mxCell id="i8UFpYCpFJMkn4LmgD1v-6" value="add a2,b2,a2" style="rounded=0;whiteSpace=wrap;html=1;" vertex="1" parent="1">
          <mxGeometry x="320" y="360" width="80" height="40" as="geometry" />
        </mxCell>
      </root>
    </mxGraphModel>
  </diagram>
</mxfile>
